<svg xmlns="http://www.w3.org/2000/svg" version="1.1" width="1024" height="1024" class="injected-svg" data-src="https://storage.googleapis.com/illustroke-c1d67.appspot.com/IpqcWBfhhpdtdS6pDf2SP9EpP7A3/8svgllhok3uip2aoqu5vo-1.svg" xmlns:xlink="http://www.w3.org/1999/xlink" viewBox="0 0 512 512">
<path d="M0 0 C168.96 0 337.92 0 512 0 C512 168.96 512 337.92 512 512 C343.04 512 174.08 512 0 512 C0 343.04 0 174.08 0 0 Z " fill="#FCFCFC" transform="translate(0,0)"/>
<path d="M0 0 C0.02749766 1.37488287 0.0466164 2.74993391 0.0625 4.125 C0.07410156 4.89070313 0.08570313 5.65640625 0.09765625 6.4453125 C0 9 0 9 -0.46875 11.62109375 C-1.21739425 16.38269134 -1.37496409 21.12496409 -1.5625 25.9375 C-1.61003418 27.01491455 -1.65756836 28.0923291 -1.70654297 29.20239258 C-1.95052803 35.49550912 -1.99837317 41.75218328 -1.81640625 48.046875 C-1.1423437 73.55844479 -1.1423437 73.55844479 -9 85 C-9.73231122 86.68644125 -10.46235338 88.37396907 -11.17259216 90.06982422 C-12.54490014 93.27114224 -14.08597357 96.38799587 -15.6171875 99.515625 C-16.12573776 100.56033966 -16.12573776 100.56033966 -16.64456177 101.62615967 C-17.71982187 103.83486715 -18.79716676 106.04254718 -19.875 108.25 C-24.9411221 118.62808323 -30.00043895 128.99344957 -34.546875 139.61328125 C-36.36304664 143.8461329 -38.29020669 148.01953023 -40.25 152.1875 C-40.83672485 153.44216064 -40.83672485 153.44216064 -41.43530273 154.72216797 C-44.17736262 160.50049778 -47.19050102 165.86581783 -50.78515625 171.1640625 C-53.8458045 178.30885551 -51.68195082 185.21237603 -49.125 192.1875 C-48.85558594 192.95513672 -48.58617187 193.72277344 -48.30859375 194.51367188 C-47.16286297 197.7748129 -45.99383088 201.01588261 -44.7421875 204.23828125 C-43.30636244 209.58106186 -45.53058858 213.34488636 -48.140625 217.98828125 C-48.45930038 218.56017685 -48.77797577 219.13207245 -49.10630798 219.72129822 C-50.14820812 221.58845831 -51.19916213 223.45035808 -52.25 225.3125 C-53.34264082 227.26632782 -54.43280791 229.2215225 -55.52287292 231.17678833 C-56.26251027 232.50312539 -57.00292256 233.82903057 -57.74409485 235.1545105 C-61.28356451 241.48842145 -64.74410974 247.86331162 -68.1875 254.25 C-70.12098267 257.83552814 -72.05793097 261.4191155 -74 265 C-74.4738916 265.87978516 -74.9477832 266.75957031 -75.43603516 267.66601562 C-75.88640137 268.49294922 -76.33676758 269.31988281 -76.80078125 270.171875 C-77.20079346 270.91018555 -77.60080566 271.64849609 -78.01293945 272.40917969 C-79 274 -79 274 -80 274 C-80.23972465 261.81399679 -79.93138115 249.72630821 -79.125 237.5625 C-79.04652832 236.31315674 -78.96805664 235.06381348 -78.88720703 233.77661133 C-78.80325684 232.59349365 -78.71930664 231.41037598 -78.6328125 230.19140625 C-78.55949707 229.14154541 -78.48618164 228.09168457 -78.41064453 227.01000977 C-77.97494108 223.81631898 -77.10994935 221.01977322 -76 218 C-76.7425 218.495 -77.485 218.99 -78.25 219.5 C-89.73220598 224.97407495 -100.07513974 218.64256015 -110 213 C-118.96159711 230.94341543 -118.96159711 230.94341543 -125 250 C-121.52467334 248.84155778 -121.5081344 248.59589093 -120.16796875 245.421875 C-119.84723389 244.67856934 -119.52649902 243.93526367 -119.19604492 243.16943359 C-118.8632251 242.37102051 -118.53040527 241.57260742 -118.1875 240.75 C-117.47955748 239.11181022 -116.77122078 237.47379073 -116.0625 235.8359375 C-115.37424747 234.22427949 -114.68671407 232.61231414 -114 231 C-112.91211927 228.45027953 -111.80722397 225.9111748 -110.6875 223.375 C-110.23761719 222.33085937 -109.78773438 221.28671875 -109.32421875 220.2109375 C-106.96638039 216.27425162 -104.1842168 218.23123053 -100.8125 220 C-99.73935547 220.556875 -99.73935547 220.556875 -98.64453125 221.125 C-95.84574385 222.61414104 -97.87481195 224.40865782 -99 227 C-100.45930055 229.55267819 -102.04057305 232.02355081 -103.625 234.5 C-104.521247 235.916405 -105.41707377 237.33307598 -106.3125 238.75 C-106.98539062 239.81154297 -106.98539062 239.81154297 -107.671875 240.89453125 C-109.6817303 244.08074304 -111.655455 247.28876569 -113.625 250.5 C-114.60339844 252.09328125 -114.60339844 252.09328125 -115.6015625 253.71875 C-116.06304687 254.4715625 -116.52453125 255.224375 -117 256 C-113.48135221 252.76316611 -110.9067211 249.1059111 -108.3125 245.125 C-107.87969727 244.4745874 -107.44689453 243.8241748 -107.00097656 243.15405273 C-104.76895691 239.78285772 -102.61392376 236.38426535 -100.55859375 232.90234375 C-100.16953857 232.25700684 -99.7804834 231.61166992 -99.37963867 230.94677734 C-98.64098203 229.71467188 -97.9201738 228.47164282 -97.2199707 227.21728516 C-94.64214151 222.95288103 -92.88938995 222.32247025 -88 223 C-88.90076807 227.5204076 -91.46432561 230.50394951 -94.25 234.0625 C-98.85515563 240.06822845 -103.25571122 246.17157261 -107.5 252.4375 C-111.56728983 258.43889414 -115.67350689 264.40421633 -119.875 270.3125 C-130.56936147 285.39099631 -140.91626956 300.69539415 -150.88037109 316.265625 C-152.5575606 318.86369614 -154.27644449 321.43249663 -156 324 C-157.48110314 321.03779372 -156.32430835 319.45001302 -155.25 316.375 C-154.87359375 315.28832031 -154.4971875 314.20164062 -154.109375 313.08203125 C-153.2632128 310.73124964 -152.3984423 308.39345864 -151.5 306.0625 C-148.6281277 298.52769526 -146.49910292 290.72273026 -144.24145508 282.98706055 C-141.51996021 273.66284188 -138.62267561 264.40159258 -135.68017578 255.14501953 C-133.01348524 246.73527685 -130.46670653 238.29660064 -128.07421875 229.8046875 C-127.29800521 227.05548028 -126.50853802 224.31209174 -125.70703125 221.5703125 C-123.15392522 212.74089862 -121.08296921 204.14866525 -120 195 C-130.6715359 203.29037765 -130.6715359 203.29037765 -141 212 C-140.85957123 210.35369672 -140.71250671 208.70795821 -140.5625 207.0625 C-140.48128906 206.14597656 -140.40007812 205.22945312 -140.31640625 204.28515625 C-140 202 -140 202 -139 201 C-138.69620253 199.25542045 -138.43311228 197.50371757 -138.1875 195.75 C-137.27996517 190.06950424 -135.85075694 184.7581777 -134.046875 179.30078125 C-132.95621045 176.00792002 -132.95621045 176.00792002 -132.203125 172.60546875 C-129.99339953 163.65191132 -126.3130859 159.44698812 -119 154 C-118.05511719 153.26265625 -117.11023438 152.5253125 -116.13671875 151.765625 C-108.15035568 145.63040569 -108.15035568 145.63040569 -103.6640625 143.171875 C-92.99301993 137.05281563 -90.28502884 129.13845559 -86.15087891 117.99462891 C-84.15618484 112.80436216 -81.83940732 107.75863178 -79.5625 102.6875 C-75.84515071 94.28786415 -72.21969762 85.85415168 -68.6875 77.375 C-68.06246582 75.87767334 -68.06246582 75.87767334 -67.42480469 74.35009766 C-65.65280006 70.08117742 -63.90767962 65.8101231 -62.2890625 61.48046875 C-57.98380126 49.98311733 -52.71176724 43.01807095 -43.078125 35.4375 C-39.70672042 32.7677583 -36.44301475 29.99616166 -33.1875 27.1875 C-32.6011377 26.68331543 -32.01477539 26.17913086 -31.41064453 25.65966797 C-29.60607349 24.10762878 -27.8028455 22.5540431 -26 21 C-1.63789869 0 -1.63789869 0 0 0 Z " fill="#313334" transform="translate(373,117)"/>
<path d="M0 0 C0.14695312 1.19496094 0.14695312 1.19496094 0.296875 2.4140625 C3.15239239 22.64884953 18.48596992 31.54291668 37.67578125 29.75 C45.9733439 28.51117261 53.15513358 24.68973284 57 17 C59 17 59 17 59.1484375 20.71484375 C59.57061957 30.64296337 60.16563458 40.53518345 61 50.4375 C62.48416941 68.54464066 63.10421608 86.54029122 63.17523193 104.70733643 C63.18339194 106.68956918 63.19448683 108.67179209 63.20855713 110.6539917 C63.22639529 113.46082292 63.23045288 116.26733749 63.23046875 119.07421875 C63.23760391 119.92949661 63.24473907 120.78477448 63.25209045 121.66596985 C63.22915638 127.65626543 63.22915638 127.65626543 61 131 C57.32860416 131 57.46677105 126.01952941 56.6875 122.9375 C54.79854582 115.7927838 52.65910257 108.83017482 50.26953125 101.8359375 C47.95462238 94.96201988 46.00461085 87.96922155 44 81 C43.48050781 81.27714844 42.96101563 81.55429687 42.42578125 81.83984375 C41.72839844 82.20207031 41.03101563 82.56429687 40.3125 82.9375 C39.28576172 83.47697266 39.28576172 83.47697266 38.23828125 84.02734375 C22.38368515 90.91703734 2.59061079 84.78660773 -5 69 C-5.6875 65.1875 -5.6875 65.1875 -6 62 C-11.81073029 68.27170681 -17.38774173 74.63211543 -22.76171875 81.28515625 C-27.25510322 86.73524736 -31.95583033 92.05100334 -37 97 C-36.62071685 93.3019893 -35.76110373 90.26942177 -34.203125 86.9296875 C-31.91377016 81.88540723 -29.9423838 76.748513 -28 71.5625 C-26.08433793 66.47028109 -24.16639146 61.38321944 -22.125 56.33984375 C-18.06335905 46.2406017 -14.36201322 35.99689083 -10.60546875 25.78125 C-9.75320379 23.4672141 -8.90072693 21.15325644 -8.0480957 18.83935547 C-7.46401595 17.25165272 -6.88138189 15.66341753 -6.30004883 14.07470703 C-5.44752763 11.74622467 -4.58955553 9.41981657 -3.73046875 7.09375 C-3.47009323 6.3783606 -3.20971771 5.66297119 -2.94145203 4.92590332 C-1.11380371 0 -1.11380371 0 0 0 Z " fill="#2A2F30" transform="translate(156,181)"/>
<path d="M0 0 C1.11328125 2.46484375 1.11328125 2.46484375 2.3125 5.9375 C2.5276123 6.55633057 2.74272461 7.17516113 2.96435547 7.81274414 C4.90679373 13.49970118 6.60204375 19.2595363 8.2121582 25.04858398 C9.4862259 29.55661614 11.10294633 33.71616413 13 38 C13.75801065 40.08261513 14.43172115 42.17774649 15.10546875 44.2890625 C15.79584771 46.38130268 16.5377428 48.4565886 17.30078125 50.5234375 C24.15528512 69.29315703 22.52971351 88.53036651 2.50415039 97.17529297 C-1.79215878 98.59022252 -5.94953733 98.59421296 -10.4375 98.5 C-11.36401367 98.48718994 -12.29052734 98.47437988 -13.24511719 98.46118164 C-32.02218297 97.90277437 -47.38118829 85.71922739 -47.23339844 66.39135742 C-46.94516045 52.64945812 -42.99025118 45.984915 -33.49853516 36.54199219 C-31.35824024 34.33962942 -29.46567123 31.97059421 -27.5625 29.5625 C-23.52340774 24.52465038 -19.18139315 19.84226124 -14.75097656 15.15209961 C-10.71519174 10.85168295 -7.03138311 6.41439035 -3.48828125 1.6953125 C-2 0 -2 0 0 0 Z " fill="#C72B3B" transform="translate(208,42)"/>
<path d="M0 0 C0.02749766 1.37488287 0.0466164 2.74993391 0.0625 4.125 C0.07410156 4.89070313 0.08570313 5.65640625 0.09765625 6.4453125 C0 9 0 9 -0.47924805 11.47070312 C-1.19429669 16.31680867 -1.2891699 21.13122285 -1.4296875 26.0234375 C-1.50333371 28.20054028 -1.57757079 30.37762313 -1.65234375 32.5546875 C-1.76574899 35.96666319 -1.87510418 39.37859024 -1.97412109 42.79101562 C-2.07203705 46.09818665 -2.18708006 49.40441577 -2.3046875 52.7109375 C-2.32981415 53.72264008 -2.3549408 54.73434265 -2.38082886 55.77670288 C-2.97371214 71.35012937 -9.69432814 80.98742983 -25.9375 81.5 C-40.21895513 81.038812 -55.73421496 72.94710258 -56 57 C-54.4092693 49.01225941 -52.78064415 43.10085815 -46.25 38 C-41.82268772 34.47315801 -37.47512516 30.8829018 -33.1875 27.1875 C-32.60154053 26.68371826 -32.01558105 26.17993652 -31.41186523 25.66088867 C-29.6069443 24.10837676 -27.80327992 22.55441757 -26 21 C-1.63789869 0 -1.63789869 0 0 0 Z " fill="#CD2C3B" transform="translate(373,117)"/>
<path d="M0 0 C1.71712479 2.24769706 3.27629746 4.45391725 4.75 6.875 C12.86292019 18.14294471 24.40470631 22.20860337 37.8125 22.0625 C38.99489258 22.05573242 38.99489258 22.05573242 40.20117188 22.04882812 C42.13414761 22.03711312 44.06708393 22.01917998 46 22 C44.64044872 30.6851335 40.8024404 38.68375637 33 43 C31.17478162 44.90665857 29.617304 46.90701836 28 49 C25 47 25 47 24.1875 44.5625 C20.98547952 37.65287686 12.31174908 37.89608364 6 40 C-3.34417995 41.03824222 -6.26187677 36.2446954 -7.640625 27.79296875 C-7.72798284 25.8365836 -7.72798284 25.8365836 -9 26 C-9.62927547 33.39398671 -7.06592415 38.90111377 -3 45 C-4.485 45.495 -4.485 45.495 -6 46 C-7.18391223 48.37625345 -7.18391223 48.37625345 -8 51 C-8.33 51.99 -8.66 52.98 -9 54 C-9.75968496 63.1162195 -6.7024661 71.37290324 3.29296875 73.484375 C14.14657039 74.35939405 19.83908115 67.09992689 24.65625 58.30859375 C26.74462384 54.72071892 29.23666297 51.88166851 33 50 C31.33429543 56.27163009 29.34890608 61.45337431 26 67 C25.2602023 68.69766249 24.52210901 70.39616052 23.80322266 72.1027832 C22.49819346 75.18527011 21.11324122 78.22152899 19.6875 81.25 C19.41744141 81.86101562 19.14738281 82.47203125 18.86914062 83.1015625 C15.35420822 90.43568115 9.87501862 91.55514471 2.25 91.4375 C1.54480225 91.42775146 0.83960449 91.41800293 0.11303711 91.40795898 C-13.33164818 90.95390264 -26.7760294 82.11985298 -29.5625 68.1875 C-28.86773244 64.25048383 -27.28240374 61.32086653 -25.4140625 57.80859375 C-23.96024654 54.92104215 -22.8110287 52.03047027 -21.6875 49 C-17.21561397 37.0749706 -11.74836967 25.53809881 -6.38671875 13.9921875 C-4.2308565 9.34038332 -2.11524358 4.67038294 0 0 Z " fill="#E8E9E9" transform="translate(309,191)"/>
<path d="M0 0 C0.515625 1.175625 1.03125 2.35125 1.5625 3.5625 C7.28943543 15.42087559 19.69743287 20.89709031 32.1875 21.5625 C32.93708984 21.60568359 33.68667969 21.64886719 34.45898438 21.69335938 C36.30578375 21.79922685 38.15286834 21.9000976 40 22 C36.0275409 32.005943 32.37129743 32.30684907 22.375 28.6875 C18.82595383 26.91297692 15.41411344 25.02059775 12 23 C13.38980752 24.13243576 14.78714677 25.25563119 16.1875 26.375 C17.35345703 27.31472656 17.35345703 27.31472656 18.54296875 28.2734375 C23.50681632 31.7615466 28.10583644 32.40059354 34 33 C33.25 37 33.25 37 31 37 C30.28771856 38.98421259 29.63484067 40.98967123 29 43 C23.13900914 57.55706567 17.91561751 67.42936155 0.171875 62.16015625 C-12.17170935 56.39593526 -24.33781151 45.46237598 -18.80786133 30.84985352 C-17.1694516 27.34663654 -15.42713282 23.92177118 -13.625 20.5 C-13.01409726 19.29765001 -12.40470932 18.09452911 -11.796875 16.890625 C-7.30918779 8.15459389 -7.30918779 8.15459389 -5 7 C-4.01 9.97 -3.02 12.94 -2 16 C-2.165 15.030625 -2.33 14.06125 -2.5 13.0625 C-4.70677313 -2.35338656 -4.70677313 -2.35338656 0 0 Z " fill="#E8E8E9" transform="translate(278,268)"/>
<path d="M0 0 C10.42291193 13.54978552 10.42291193 13.54978552 6 21.8125 C5.33596641 23.13543374 4.67727704 24.46106094 4.0234375 25.7890625 C3.68538086 26.47516602 3.34732422 27.16126953 2.99902344 27.86816406 C1.34375698 31.40037 -0.02485398 35.02987005 -1.375 38.6875 C-1.75011719 39.693573 -1.75011719 39.693573 -2.1328125 40.7199707 C-3.2559359 43.78165189 -4.30561881 46.81069105 -5 50 C-1.52467334 48.84155778 -1.5081344 48.59589093 -0.16796875 45.421875 C0.15276611 44.67856934 0.47350098 43.93526367 0.80395508 43.16943359 C1.1367749 42.37102051 1.46959473 41.57260742 1.8125 40.75 C2.52044252 39.11181022 3.22877922 37.47379073 3.9375 35.8359375 C4.62575253 34.22427949 5.31328593 32.61231414 6 31 C7.08788073 28.45027953 8.19277603 25.9111748 9.3125 23.375 C9.76238281 22.33085937 10.21226562 21.28671875 10.67578125 20.2109375 C13.03361961 16.27425162 15.8157832 18.23123053 19.1875 20 C20.26064453 20.556875 20.26064453 20.556875 21.35546875 21.125 C24.15425615 22.61414104 22.12518805 24.40865782 21 27 C19.54069945 29.55267819 17.95942695 32.02355081 16.375 34.5 C15.478753 35.916405 14.58292623 37.33307598 13.6875 38.75 C13.01460938 39.81154297 13.01460938 39.81154297 12.328125 40.89453125 C10.3182697 44.08074304 8.344545 47.28876569 6.375 50.5 C5.72273438 51.5621875 5.07046875 52.624375 4.3984375 53.71875 C3.93695313 54.4715625 3.47546875 55.224375 3 56 C6.51864779 52.76316611 9.0932789 49.1059111 11.6875 45.125 C12.12030273 44.4745874 12.55310547 43.8241748 12.99902344 43.15405273 C15.23104309 39.78285772 17.38607624 36.38426535 19.44140625 32.90234375 C19.83046143 32.25700684 20.2195166 31.61166992 20.62036133 30.94677734 C21.35901797 29.71467188 22.0798262 28.47164282 22.7800293 27.21728516 C25.35785849 22.95288103 27.11061005 22.32247025 32 23 C31.09923193 27.5204076 28.53567439 30.50394951 25.75 34.0625 C21.14484437 40.06822845 16.74428878 46.17157261 12.5 52.4375 C8.43271017 58.43889414 4.32649311 64.40421633 0.125 70.3125 C-10.56936147 85.39099631 -20.91626956 100.69539415 -30.88037109 116.265625 C-32.5575606 118.86369614 -34.27644449 121.43249663 -36 124 C-37.48110314 121.03779372 -36.32430835 119.45001302 -35.25 116.375 C-34.87359375 115.28832031 -34.4971875 114.20164062 -34.109375 113.08203125 C-33.2632128 110.73124964 -32.3984423 108.39345864 -31.5 106.0625 C-28.6281277 98.52769526 -26.49910292 90.72273026 -24.24145508 82.98706055 C-21.51996021 73.66284188 -18.62267561 64.40159258 -15.68017578 55.14501953 C-12.61466357 45.47754277 -9.74262145 35.76373235 -7 26 C-6.79197754 25.25959473 -6.58395508 24.51918945 -6.36962891 23.75634766 C-5.70288438 21.37974982 -5.03845369 19.00251848 -4.375 16.625 C-4.16883057 15.88805908 -3.96266113 15.15111816 -3.75024414 14.3918457 C-2.42184298 9.61229606 -1.18524417 4.81709327 0 0 Z " fill="#B92434" transform="translate(253,317)"/>
<path d="M0 0 C4.71621367 -0.74265053 4.71621367 -0.74265053 5.96875 2.53515625 C6.1440625 3.69917969 6.319375 4.86320312 6.5 6.0625 C8.10729829 15.10929323 10.88231797 23.55258641 14.21484375 32.125 C15.69448222 37.54297968 13.51357275 41.26632097 10.859375 45.98828125 C10.54069962 46.56017685 10.22202423 47.13207245 9.89369202 47.72129822 C8.85179188 49.58845831 7.80083787 51.45035808 6.75 53.3125 C5.65735918 55.26632782 4.56719209 57.2215225 3.47712708 59.17678833 C2.73748973 60.50312539 1.99707744 61.82903057 1.25590515 63.1545105 C-2.28356451 69.48842145 -5.74410974 75.86331162 -9.1875 82.25 C-11.12098267 85.83552814 -13.05793097 89.4191155 -15 93 C-15.4738916 93.87978516 -15.9477832 94.75957031 -16.43603516 95.66601562 C-16.88640137 96.49294922 -17.33676758 97.31988281 -17.80078125 98.171875 C-18.40079956 99.27934082 -18.40079956 99.27934082 -19.01293945 100.40917969 C-20 102 -20 102 -21 102 C-21.23946604 89.82714313 -20.91362245 77.77304768 -20.0625 65.625 C-19.97564941 64.38403564 -19.88879883 63.14307129 -19.79931641 61.86450195 C-18.98077407 50.78543309 -17.81957051 42.05302626 -12.23046875 32.30078125 C-10.76579214 29.56206847 -9.71970883 26.78430624 -8.68359375 23.86328125 C-5.79874214 16 -5.79874214 16 -3 16 C-2.33820153 14.01954441 -2.33820153 14.01954441 -2 12 C-3.155 12.0825 -4.31 12.165 -5.5 12.25 C-13.61562484 12.22137346 -19.32084298 7.32420971 -25 2 C-21.63134523 2 -20.93154499 2.51937087 -18.25 4.375 C-13.46953411 7.4656675 -4.01613946 12.63524177 0.484375 7.2109375 C1.76128008 5.1808019 2.92012726 3.14063269 4 1 C2.68 0.67 1.36 0.34 0 0 Z " fill="#373839" transform="translate(314,289)"/>
<path d="M0 0 C1.12812867 1.69219301 2.23459288 3.40091415 3.26171875 5.15625 C6.48729088 10.64890738 6.48729088 10.64890738 11.875 13.625 C17.80804085 16.23553798 14.62034456 25.6427612 13.75 31.25 C13.61722656 32.12696533 13.48445312 33.00393066 13.34765625 33.9074707 C12.43797084 39.72184182 11.29134859 45.44755447 10 51.1875 C7.42551743 62.6604695 6.24160416 74.32062442 5 86 C6.49695554 79.7862908 7.99029108 73.57174302 9.4765625 67.35546875 C10.29354052 63.93852007 11.1135953 60.52282486 11.9609375 57.11328125 C13.46624247 50.9221076 14.5394415 44.73096192 15.5 38.4375 C15.88434483 36.02955933 16.27162864 33.62211276 16.66015625 31.21484375 C16.96759674 29.21117989 17.22137749 27.19946306 17.46875 25.1875 C18.72631358 17.49416985 20.50094595 15.87402067 28.27734375 15.26953125 C34.25885881 14.677387 38.06102532 10.17067908 42 6 C40.95945663 10.57839081 39.35854833 14.39341748 37.1875 18.5625 C34.38738309 23.99962022 32.29078508 29.48389125 30.37109375 35.28515625 C28.87811915 39.33022418 27.10911547 43.18460789 25.30444336 47.09790039 C23.22264438 51.7294453 21.39120089 56.45150897 19.5625 61.1875 C19.17489502 62.18563721 18.78729004 63.18377441 18.38793945 64.2121582 C17.25372041 67.13957732 16.12527977 70.06913433 15 73 C14.69352539 73.79792969 14.38705078 74.59585938 14.07128906 75.41796875 C11.53377487 82.04777462 9.07207561 88.68509775 6.875 95.4375 C2.11379959 110 2.11379959 110 0 110 C0 73.7 0 37.4 0 0 Z " fill="#CB283A" transform="translate(152,264)"/>
<path d="M0 0 C0 4.06462631 -1.77037665 7.00112683 -3.54296875 10.5625 C-3.90844315 11.30902832 -4.27391754 12.05555664 -4.65046692 12.82470703 C-5.82395088 15.21923241 -7.00536587 17.60973491 -8.1875 20 C-9.72506894 23.12381742 -11.25955694 26.2491401 -12.79296875 29.375 C-13.16380585 30.13022949 -13.53464294 30.88545898 -13.91671753 31.66357422 C-17.29200731 38.55626926 -20.51101867 45.50529576 -23.51953125 52.56640625 C-25.46457458 57.07746979 -27.57342843 61.50368164 -29.6875 65.9375 C-30.10322266 66.81212891 -30.51894531 67.68675781 -30.94726562 68.58789062 C-31.96366135 70.72582646 -32.9812642 72.86317849 -34 75 C-37 73 -37 73 -35.390625 70.0703125 C-31.458717 62.84910492 -27.85935294 55.72280593 -25 48 C-24.25446534 46.12322003 -23.50451479 44.24818777 -22.75 42.375 C-22.41484375 41.53710938 -22.0796875 40.69921875 -21.734375 39.8359375 C-21.49203125 39.23007813 -21.2496875 38.62421875 -21 38 C-24.48102876 39.39241151 -25.56592876 40.57176962 -27 44 C-32.37065074 54.5123885 -40.91784455 65.84315572 -54.046875 60.10546875 C-63.71502323 53.92859627 -65.33532922 44.45309359 -60.0703125 34.6640625 C-59 33 -59 33 -57 31 C-57.61875 30.29875 -58.2375 29.5975 -58.875 28.875 C-62.68576653 23.71925704 -63.25310678 19.32766957 -63 13 C-58.96338306 13 -59.58909566 13.58158077 -59.0625 17.25 C-57.59407477 24.76975823 -54.72433105 26.70221191 -47 26 C-46.01 25.67 -45.02 25.34 -44 25 C-35.30631324 24.2755261 -29.3956479 26.21126427 -26 35 C-25.46890625 34.44570312 -24.9378125 33.89140625 -24.390625 33.3203125 C-23.68421875 32.59585938 -22.9778125 31.87140625 -22.25 31.125 C-21.55390625 30.40570313 -20.8578125 29.68640625 -20.140625 28.9453125 C-18 27 -18 27 -15.98632812 26.109375 C-13.58469429 24.76804951 -13.1146085 23.81616674 -12.078125 21.3046875 C-11.77519531 20.58925781 -11.47226562 19.87382812 -11.16015625 19.13671875 C-10.85980469 18.39035156 -10.55945313 17.64398438 -10.25 16.875 C-9.77626953 15.74384766 -9.77626953 15.74384766 -9.29296875 14.58984375 C-8.51670148 12.73150695 -7.7567511 10.86636929 -7 9 C-7.99 9.33 -8.98 9.66 -10 10 C-18.30683273 10.56171041 -26.28559903 10.43059767 -34 7 C-34 6.67 -34 6.34 -34 6 C-32.1128125 6.2475 -32.1128125 6.2475 -30.1875 6.5 C-18.72311602 7.70394001 -9.378856 7.4560837 0 0 Z " fill="#58595C" transform="translate(362,204)"/>
<path d="M0 0 C0.30763701 1.51381775 0.56924058 3.03701333 0.8125 4.5625 C4.71446408 24.60954733 23.89536779 29.46408268 42 28 C50.92939163 25.80721269 56.42947862 21.56562122 60.88671875 13.609375 C62 12 62 12 64 12 C65.27521405 29.35708012 59.38752576 45.52063068 40.46655273 48.38330078 C37.81884167 48.5346842 35.21382939 48.55565768 32.5625 48.5 C31.63598633 48.48718994 30.70947266 48.47437988 29.75488281 48.46118164 C10.75088242 47.89602561 -4.18964043 35.64971256 -4.25756836 16.27929688 C-4.21749354 13.0877528 -4.0301863 0 0 0 Z " fill="#2B2D2E" transform="translate(165,92)"/>
<path d="M0 0 C2.33009296 2.25218347 3.87183277 4.38288268 5.5 7.1875 C17.37163496 25.20064909 37.90811672 26.29087941 56 18 C56.74114857 30.84657528 54.98915486 40.8025451 41 43 C23.19126538 44.10064115 2.73040021 40.07677355 0 19 C-0.11464257 15.70695415 -0.09475044 12.41950692 -0.0625 9.125 C-0.05798828 8.24585938 -0.05347656 7.36671875 -0.04882812 6.4609375 C-0.03712337 4.30726197 -0.01919069 2.15362183 0 0 Z " fill="#C52235" transform="translate(151,209)"/>
<path d="M0 0 C0.09796875 0.79664063 0.1959375 1.59328125 0.296875 2.4140625 C3.15239239 22.64884953 18.48596992 31.54291668 37.67578125 29.75 C45.9733439 28.51117261 53.15513358 24.68973284 57 17 C57.66 17 58.32 17 59 17 C59 18.98 59 20.96 59 23 C58.34 23 57.68 23 57 23 C55.87329036 26.29581732 54.93411083 29.59896889 54.03125 32.9609375 C49.71717992 47.97827004 33.36845378 48.6499255 20 47 C16.43576174 45.89419755 13.89582064 44.32256635 11 42 C10.30648437 41.50371094 9.61296875 41.00742188 8.8984375 40.49609375 C4.65176832 37.19577969 -14.97379218 0 0 0 Z " fill="#DD3042" transform="translate(156,181)"/>
<path d="M0 0 C1.41770531 2.83541061 0.42632225 3.70714739 -0.9140625 6.515625 C-1.34307861 7.43045654 -1.77209473 8.34528809 -2.21411133 9.2878418 C-2.91250122 10.75411011 -2.91250122 10.75411011 -3.625 12.25 C-7.12531037 19.74979861 -10.27739008 27.15705364 -12.93359375 34.99609375 C-13.94258639 37.83827448 -15.09485847 40.5209523 -16.375 43.25 C-21.59387753 54.39124012 -25.70575316 66.07298265 -29.95874023 77.61010742 C-34.60174387 90.13275204 -34.60174387 90.13275204 -38 89 C-38.58333333 82.58333333 -38.58333333 82.58333333 -36 80 C-35.21261408 77.60665863 -35.21261408 77.60665863 -34.59765625 74.79296875 C-34.34862549 73.73803223 -34.09959473 72.6830957 -33.84301758 71.59619141 C-33.58544678 70.47132324 -33.32787598 69.34645508 -33.0625 68.1875 C-32.79526123 67.04200684 -32.52802246 65.89651367 -32.25268555 64.71630859 C-31.72753268 62.46272129 -31.20506772 60.2085056 -30.68554688 57.95361328 C-30.1560133 55.67216841 -29.60574934 53.39552906 -29.046875 51.12109375 C-27.5291844 44.92923903 -26.46104874 38.73417388 -25.5 32.4375 C-25.11565517 30.02955933 -24.72837136 27.62211276 -24.33984375 25.21484375 C-24.03240326 23.21117989 -23.77862251 21.19946306 -23.53125 19.1875 C-22.27404341 11.49635379 -20.50112787 9.87467552 -12.7265625 9.26953125 C-6.74608317 8.67833773 -3.34488069 4.63137326 0 0 Z " fill="#B62434" transform="translate(193,270)"/>
<path d="M0 0 C-0.22816406 0.64066406 -0.45632813 1.28132812 -0.69140625 1.94140625 C-5.38305019 16.05841561 0.54440608 26.46299423 14.125 31.875 C27.05300544 35.61025417 41.1835868 34.29465874 47 21 C47.165 20.2575 47.33 19.515 47.5 18.75 C48 17 48 17 50 17 C50.42395631 22.91226352 49.23629286 26.81378243 46.5625 32.0625 C46.20704102 32.76769775 45.85158203 33.47289551 45.48535156 34.19946289 C40.51463431 43.45628816 33.44568381 47.56232602 23 46.6875 C21.96875 46.60886719 20.9375 46.53023437 19.875 46.44921875 C13 45.375 13 45.375 13 42 C12.195625 41.979375 11.39125 41.95875 10.5625 41.9375 C0.27924861 39.23138121 -9 28.77043726 -9 18 C-9.66 18 -10.32 18 -11 18 C-4.77108434 -2.38554217 -4.77108434 -2.38554217 0 0 Z " fill="#203133" transform="translate(321,164)"/>
<path d="M0 0 C10.34846592 13.45300569 10.34846592 13.45300569 6.25 21.1875 C2.64116306 28.32596 -0.28934422 35.64854885 -3.125 43.125 C-3.53202148 44.19645264 -3.93904297 45.26790527 -4.35839844 46.37182617 C-5.16637912 48.50425062 -5.97204391 50.637554 -6.77539062 52.77172852 C-8.02906759 56.07662695 -9.31528894 59.36782784 -10.6015625 62.66015625 C-12.40275039 67.330214 -14.0006139 72.01722976 -15.47192383 76.79980469 C-23.69219549 103.34609775 -23.69219549 103.34609775 -31 107 C-28.8651141 97.92375324 -26.45439278 89.08003053 -23.421875 80.25390625 C-20.65250926 72.09856057 -18.26547752 63.81439504 -15.77832031 55.56982422 C-14.80445215 52.35434861 -13.80992178 49.1457425 -12.8125 45.9375 C-10.77368879 39.32000261 -8.87253985 32.66624188 -7 26 C-6.79197754 25.25959473 -6.58395508 24.51918945 -6.36962891 23.75634766 C-5.70288438 21.37974982 -5.03845369 19.00251848 -4.375 16.625 C-4.16883057 15.88805908 -3.96266113 15.15111816 -3.75024414 14.3918457 C-2.42184298 9.61229606 -1.18524417 4.81709327 0 0 Z " fill="#F23344" transform="translate(253,317)"/>
<path d="M0 0 C0.30763701 1.51381775 0.56924058 3.03701333 0.8125 4.5625 C4.71446408 24.60954733 23.89536779 29.46408268 42 28 C50.92939163 25.80721269 56.42947862 21.56562122 60.88671875 13.609375 C62 12 62 12 64 12 C64.08059014 13.81178578 64.13900127 15.62457133 64.1875 17.4375 C64.23970703 18.95150391 64.23970703 18.95150391 64.29296875 20.49609375 C64 23 64 23 61 24 C60.31897657 25.32605781 59.65385392 26.66033688 59 28 C48.21585612 38.35379072 30.44496513 40.79975248 17 34 C16.18273437 33.5978125 15.36546875 33.195625 14.5234375 32.78125 C10.2306547 30.44680618 -15.41007629 0 0 0 Z " fill="#222D2D" transform="translate(165,92)"/>
<path d="M0 0 C-1 2 -1 2 -4 2 C-4.70491267 4.32206525 -5.37212429 6.65593068 -6 9 C-6.66 9 -7.32 9 -8 9 C-8.91878231 10.06801128 -9.78608787 11.18067163 -10.625 12.3125 C-15.60736058 18.30103072 -21.47654767 19.47021577 -29 19 C-29.03738281 19.57105469 -29.07476562 20.14210938 -29.11328125 20.73046875 C-29.6051136 26.79640111 -30.71364903 32.53072674 -32.18359375 38.43359375 C-32.82947194 41.25506164 -33.37779022 44.04633503 -33.87890625 46.89453125 C-35.0884002 53.67334977 -36.55386626 60.3931024 -38.03173828 67.1171875 C-38.50214028 69.25974845 -38.96803585 71.40325688 -39.43359375 73.546875 C-39.73671029 74.93235052 -40.04008657 76.31776924 -40.34375 77.703125 C-40.61380859 78.93708008 -40.88386719 80.17103516 -41.16210938 81.44238281 C-43.64864123 92 -43.64864123 92 -45 92 C-44.50494779 81.77830729 -43.34522298 71.90073704 -41.5625 61.8125 C-41.34529297 60.54986328 -41.12808594 59.28722656 -40.90429688 57.98632812 C-40.47608259 55.49805595 -40.04516307 53.01024758 -39.61132812 50.52294922 C-38.71420491 45.35302593 -37.85662531 40.17675807 -37 35 C-36.71637747 33.29683641 -36.43253542 31.59370936 -36.1484375 29.890625 C-36.01953125 29.1171875 -35.890625 28.34375 -35.7578125 27.546875 C-35.171875 24.03125 -34.5859375 20.515625 -34 17 C-32.02 17.33 -30.04 17.66 -28 18 C-28 13.71 -28 9.42 -28 5 C-24.8134375 4.8453125 -24.8134375 4.8453125 -21.5625 4.6875 C-17.13600952 4.37388225 -2.66592593 -1.33296297 0 0 Z " fill="#B7A2A9" transform="translate(201,262)"/>
<path d="M0 0 C3.51551961 1.6397509 5.51605327 3.42131805 8.0625 6.375 C8.73410156 7.14585937 9.40570313 7.91671875 10.09765625 8.7109375 C17.62165529 17.76445586 21.11966477 30.64034405 12 40 C6.05993838 42.97003081 1.88316968 39.24871027 -1 34 C-1.7342215 28.14180927 -1.34005103 22.43589398 -0.9375 16.5625 C-0.85408455 14.95655008 -0.77397343 13.35042491 -0.69726562 11.74414062 C-0.50299386 7.82636532 -0.26379037 3.91368401 0 0 Z " fill="#2B2D2D" transform="translate(159,135)"/>
<path d="M0 0 C0 1.98 0 3.96 0 6 C-0.66 6 -1.32 6 -2 6 C-3.12670964 9.29581732 -4.06588917 12.59896889 -4.96875 15.9609375 C-8.58738671 28.5574577 -19.24164238 30.38991967 -31 30.125 C-32.16208984 30.11146484 -32.16208984 30.11146484 -33.34765625 30.09765625 C-35.23190843 30.07439388 -37.11599832 30.0385364 -39 30 C-38.01 29.67 -37.02 29.34 -36 29 C-35.26199167 26.2645357 -35.26199167 26.2645357 -34.9375 23.0625 C-34.0769729 16.18647866 -33.02933616 14.94540076 -26.125 14.25 C-17.51002552 13.04524219 -4.20582579 0 0 0 Z " fill="#B82333" transform="translate(215,198)"/>
<path d="M0 0 C0.91910156 0.47308594 1.83820313 0.94617188 2.78515625 1.43359375 C6.15397597 3.20054275 4.33325015 4.34381557 2.9375 7.5625 C1.47965557 10.13675789 -0.0986618 12.62995989 -1.6875 15.125 C-2.3530188 16.17095337 -2.3530188 16.17095337 -3.03198242 17.23803711 C-3.93847068 18.65973425 -4.84658686 20.08039477 -5.75634766 21.5 C-6.97357397 23.42207998 -8.15367198 25.36176314 -9.32421875 27.3125 C-10.00097656 28.405625 -10.67773438 29.49875 -11.375 30.625 C-11.96925781 31.60597656 -12.56351562 32.58695312 -13.17578125 33.59765625 C-15.0625 35.5625 -15.0625 35.5625 -17.55078125 34.93359375 C-21.82860055 34.30156757 -22.444411 38.15369143 -23.9375 41.5625 C-24.44023437 42.63854492 -24.44023437 42.63854492 -24.953125 43.73632812 C-25.6537768 45.24167588 -26.3446695 46.75159954 -27.02636719 48.265625 C-28.03937969 50.51124743 -29.08024403 52.741431 -30.1328125 54.96875 C-31.79586568 58.4910917 -33.43534528 62.02343849 -35.0625 65.5625 C-36.15639674 62.29050254 -35.97486157 60.47559698 -34.8046875 57.25390625 C-34.51086182 56.42987305 -34.21703613 55.60583984 -33.91430664 54.75683594 C-33.43078735 53.45407715 -33.43078735 53.45407715 -32.9375 52.125 C-32.6170874 51.2371582 -32.2966748 50.34931641 -31.96655273 49.43457031 C-29.42904537 42.44075167 -26.80167932 35.47987451 -24.0625 28.5625 C-23.7325 29.2225 -23.4025 29.8825 -23.0625 30.5625 C-19.58717334 29.40405778 -19.5706344 29.15839093 -18.23046875 25.984375 C-17.90957275 25.2411499 -17.58867676 24.4979248 -17.25805664 23.73217773 C-16.92539795 22.93368408 -16.59273926 22.13519043 -16.25 21.3125 C-15.5450086 19.67285967 -14.83927303 18.03353912 -14.1328125 16.39453125 C-13.78508789 15.57936035 -13.43736328 14.76418945 -13.07910156 13.92431641 C-11.64470582 10.59186097 -10.14259334 7.29545028 -8.625 4 C-8.15191406 2.96746094 -7.67882812 1.93492187 -7.19140625 0.87109375 C-5.02190333 -3.5655022 -4.0599806 -2.10707854 0 0 Z " fill="#D12D3C" transform="translate(271.0625,336.4375)"/>
<path d="M0 0 C0.87434599 2.92544334 0.96829525 5.16482171 0.6875 8.1875 C0.60490454 20.76265937 15.6246374 31.99120578 27.40234375 32.29296875 C28.91434373 32.27333239 30.4262162 32.23800563 31.9375 32.1875 C32.71673828 32.17396484 33.49597656 32.16042969 34.29882812 32.14648438 C36.19952404 32.11150224 38.09985834 32.05770959 40 32 C38.48727505 39.91271512 31.63610083 40.87370303 24.5703125 40.65234375 C6.98885759 37.43997726 -7.77320965 26.19707262 -5 7 C-3.80095025 4.15561742 -2.19110334 2.19110334 0 0 Z " fill="#262B2D" transform="translate(258,298)"/>
<path d="M0 0 C1.68416016 0.84884766 1.68416016 0.84884766 3.40234375 1.71484375 C4.91371085 2.45644624 6.42544978 3.19729131 7.9375 3.9375 C8.67291016 4.31068359 9.40832031 4.68386719 10.16601562 5.06835938 C15.52881993 7.66779727 20.04853619 8.62766413 26 9 C25.01 10.32 24.02 11.64 23 13 C23 12.34 23 11.68 23 11 C17.44384365 10.39606996 16.82044832 10.90614659 15 16 C14.03842671 17.61451825 13.03149824 19.20261806 11.98828125 20.765625 C11.39466797 21.65636719 10.80105469 22.54710937 10.18945312 23.46484375 C9.57005859 24.38394531 8.95066406 25.30304688 8.3125 26.25 C7.71244141 27.15363281 7.11238281 28.05726563 6.49414062 28.98828125 C2.5638307 34.85630574 -1.58500195 40.48780852 -6 46 C-7.41929212 43.16141575 -6.399506 42.5600774 -4.7890625 39.921875 C-4.28987305 39.09655273 -3.79068359 38.27123047 -3.27636719 37.42089844 C-2.73141602 36.53950195 -2.18646484 35.65810547 -1.625 34.75 C-1.08004883 33.85571289 -0.53509766 32.96142578 0.02636719 32.04003906 C4.56763578 24.6182935 9.22948689 17.27623716 14 10 C13.278125 9.896875 12.55625 9.79375 11.8125 9.6875 C8.75508007 8.94013068 6.61670365 7.71954811 4 6 C2.97641295 8.16539996 1.95606464 10.33223745 0.9375 12.5 C0.62385498 13.16402832 0.31020996 13.82805664 -0.01293945 14.51220703 C-1.71886575 18.15202685 -3.35411686 21.80537966 -4.8828125 25.5234375 C-5.33708618 26.61495117 -5.33708618 26.61495117 -5.80053711 27.72851562 C-6.38432987 29.14131661 -6.95583303 30.55926904 -7.51391602 31.98242188 C-9.96678041 37.87698241 -9.96678041 37.87698241 -14 38 C-13.44180778 31.92555525 -11.57917444 26.86254534 -9.25 21.25 C-8.89164063 20.37053711 -8.53328125 19.49107422 -8.1640625 18.58496094 C-5.59397251 12.31921098 -2.9164632 6.11335555 0 0 Z " fill="#D8D8DF" transform="translate(262,329)"/>
<path d="M0 0 C0 4.06462631 -1.77037665 7.00112683 -3.54296875 10.5625 C-3.90844315 11.30902832 -4.27391754 12.05555664 -4.65046692 12.82470703 C-5.82395088 15.21923241 -7.00536587 17.60973491 -8.1875 20 C-9.72506894 23.12381742 -11.25955694 26.2491401 -12.79296875 29.375 C-13.16380585 30.13022949 -13.53464294 30.88545898 -13.91671753 31.66357422 C-17.29200731 38.55626926 -20.51101867 45.50529576 -23.51953125 52.56640625 C-25.46457458 57.07746979 -27.57342843 61.50368164 -29.6875 65.9375 C-30.10322266 66.81212891 -30.51894531 67.68675781 -30.94726562 68.58789062 C-31.96366135 70.72582646 -32.9812642 72.86317849 -34 75 C-37 73 -37 73 -35.390625 70.0703125 C-31.458717 62.84910492 -27.85935294 55.72280593 -25 48 C-24.25446534 46.12322003 -23.50451479 44.24818777 -22.75 42.375 C-22.41484375 41.53710938 -22.0796875 40.69921875 -21.734375 39.8359375 C-21.49203125 39.23007813 -21.2496875 38.62421875 -21 38 C-24.53292995 39.42637677 -24.53292995 39.42637677 -26 43 C-27 43 -27 43 -27.4375 39.375 C-27.44908136 32.81995159 -22.25309705 30.24389733 -17 27.34375 C-13.1037704 24.29982063 -11.88150736 21.26901439 -10.125 16.75 C-9.81820313 16.00492188 -9.51140625 15.25984375 -9.1953125 14.4921875 C-8.4469935 12.66815995 -7.72117047 10.83493078 -7 9 C-7.99 9.33 -8.98 9.66 -10 10 C-18.30683273 10.56171041 -26.28559903 10.43059767 -34 7 C-34 6.67 -34 6.34 -34 6 C-32.1128125 6.2475 -32.1128125 6.2475 -30.1875 6.5 C-18.72311602 7.70394001 -9.378856 7.4560837 0 0 Z " fill="#636365" transform="translate(362,204)"/>
<path d="M0 0 C0.226875 0.99 0.45375 1.98 0.6875 3 C6.25591206 23.11944504 31.04441869 29.30875693 49.08984375 25.31640625 C54.80990362 23.19231622 61.17664084 19.64671831 64 14 C64.66 14 65.32 14 66 14 C65.34 17.3 64.68 20.6 64 24 C63.34 23.34 62.68 22.68 62 22 C61.05125 22.9075 60.1025 23.815 59.125 24.75 C41.98578933 39.07227109 18.53479459 32.92328116 4.625 17.4375 C3.208338 15.6666725 -5.61582619 0 0 0 Z " fill="#585957" transform="translate(162,102)"/>
<path d="M0 0 C0.66 0.99 1.32 1.98 2 3 C3.65948148 4.01187895 5.32580562 5.0126546 7 6 C10.57746939 13.15493878 7.1888798 19.87408013 1 24 C-6.24782522 24.69026907 -11.13342646 23.32323748 -12.4375 15.3125 C-11.53783935 8.50078367 -6.92669332 4.16492127 0 4 C0 2.68 0 1.36 0 0 Z " fill="#252625" transform="translate(319,233)"/>
<path d="M0 0 C-1 2 -1 2 -4 2 C-4.70491267 4.32206525 -5.37212429 6.65593068 -6 9 C-6.66 9 -7.32 9 -8 9 C-9.56958193 10.67721041 -10.9480525 12.46794114 -12.3671875 14.2734375 C-15.66527151 17.76088518 -18.55431665 18.24857061 -23.25 18.125 C-24.8175 18.08375 -26.385 18.0425 -28 18 C-28 5 -28 5 -21.5625 4.6875 C-17.13600952 4.37388225 -2.66592593 -1.33296297 0 0 Z " fill="#C1C1C4" transform="translate(201,262)"/>
<path d="M0 0 C0.859375 2.16015625 0.859375 2.16015625 1.75 5.0625 C4.75413238 13.66624677 10.88410282 21.38838566 20.2421875 23.5078125 C22 24 22 24 22 26 C27.28 26.66 32.56 27.32 38 28 C30.15446418 35.84553582 11.64410386 27.32037722 5 21 C2.12955515 18.22499193 -7.35270737 0 0 0 Z " fill="#2B2E2F" transform="translate(312,182)"/>
<path d="M0 0 C0.33 3.3 0.66 6.6 1 10 C0.34 10 -0.32 10 -1 10 C-2.39665392 12.60587809 -3.65738163 15.18628137 -4.875 17.875 C-5.21402344 18.60203125 -5.55304688 19.3290625 -5.90234375 20.078125 C-8.08274975 24.80371975 -10.06143886 29.58952102 -11.97314453 34.42919922 C-13.74245115 38.85877571 -15.6219251 43.24068862 -17.5 47.625 C-17.87769531 48.51445312 -18.25539063 49.40390625 -18.64453125 50.3203125 C-20.92444952 55.64795657 -23.37672057 60.83328008 -26 66 C-26.69040574 67.65697379 -27.36971413 69.31923769 -28 71 C-32.05520292 68.97239854 -28.44661452 63.42315528 -26.953125 60.09765625 C-26.52652588 59.13931885 -26.09992676 58.18098145 -25.66040039 57.19360352 C-25.19496826 56.16033936 -24.72953613 55.1270752 -24.25 54.0625 C-23.25307123 51.82328824 -22.25701679 49.58368707 -21.26171875 47.34375 C-20.73368652 46.1578125 -20.2056543 44.971875 -19.66162109 43.75 C-17.04431094 37.85566454 -14.47690112 31.93957241 -11.91223145 26.02218628 C-11.08194081 24.10733521 -10.24953665 22.193413 -9.41699219 20.27954102 C-6.74821463 14.12449632 -4.1460588 7.96368686 -1.75952148 1.69311523 C-1 0 -1 0 0 0 Z " fill="#757576" transform="translate(310,183)"/>
<path d="M0 0 C3.06034838 1.34179421 4.93011513 2.7479518 7.0625 5.3125 C7.54847656 5.88613281 8.03445312 6.45976562 8.53515625 7.05078125 C14.93279124 15.56390088 21.21906602 32.59438099 12 41 C9.04335481 42.4783226 6.25770263 42.06032783 3 42 C3.763125 41.46375 4.52625 40.9275 5.3125 40.375 C16.05312306 30.8832866 11.12090737 17.51507607 3.25 8.1875 C2.43015625 7.27355469 1.6103125 6.35960937 0.765625 5.41796875 C-1 3 -1 3 0 0 Z " fill="#B3B4B4" transform="translate(164,135)"/>
<path d="M0 0 C1.50433594 0.04060547 1.50433594 0.04060547 3.0390625 0.08203125 C3.80992187 0.11683594 4.58078125 0.15164063 5.375 0.1875 C4.385 1.5075 3.395 2.8275 2.375 4.1875 C2.375 3.5275 2.375 2.8675 2.375 2.1875 C-3.18115635 1.58356996 -3.80455168 2.09364659 -5.625 7.1875 C-6.58657329 8.80201825 -7.59350176 10.39011806 -8.63671875 11.953125 C-9.23033203 12.84386719 -9.82394531 13.73460937 -10.43554688 14.65234375 C-11.05494141 15.57144531 -11.67433594 16.49054688 -12.3125 17.4375 C-12.91255859 18.34113281 -13.51261719 19.24476563 -14.13085938 20.17578125 C-18.0611693 26.04380574 -22.21000195 31.67530852 -26.625 37.1875 C-28.05206303 34.33337395 -26.99461384 33.6940292 -25.37890625 31.0390625 C-24.87472168 30.20366943 -24.37053711 29.36827637 -23.85107422 28.50756836 C-23.30209473 27.6181958 -22.75311523 26.72882324 -22.1875 25.8125 C-21.63852051 24.91088135 -21.08954102 24.0092627 -20.52392578 23.08032227 C-16.39189952 16.33207159 -12.10958338 9.7073943 -7.625 3.1875 C-5.06211104 -0.65683344 -4.40641818 -0.15371226 0 0 Z " fill="#EAE2E5" transform="translate(282.625,337.8125)"/>
<path d="M0 0 C0.02578125 0.556875 0.0515625 1.11375 0.078125 1.6875 C1.63956708 22.69599349 19.04366045 28.123499 37 31 C29.9797841 38.0202159 14.02053704 30.1487492 7.90625 24.8984375 C2.76863825 19.78188154 -1 14.41992456 -1 7 C-1.66 7 -2.32 7 -3 7 C-1.125 0 -1.125 0 0 0 Z " fill="#6C635C" transform="translate(313,175)"/>
<path d="M0 0 C0.33 0.66 0.66 1.32 1 2 C3.06381575 1.67156616 3.06381575 1.67156616 5 1 C2.99914371 7.35043956 0.21082085 13.28377384 -2.59521484 19.30566406 C-3.50274169 21.25589174 -4.40201037 23.20978685 -5.30078125 25.1640625 C-5.87711023 26.40647924 -6.45391635 27.64867479 -7.03125 28.890625 C-7.55267578 30.01500977 -8.07410156 31.13939453 -8.61132812 32.29785156 C-10 35 -10 35 -12 37 C-11.58999246 31.4648982 -10.41236259 27.09195559 -8.25 21.99609375 C-6.67434134 18.2194369 -5.24203267 14.39638358 -3.8125 10.5625 C-3.55057861 9.86382812 -3.28865723 9.16515625 -3.01879883 8.4453125 C-1.97061005 5.64194544 -0.94653111 2.83959332 0 0 Z " fill="#C23A48" transform="translate(247,365)"/>
<path d="M0 0 C0 7.55412024 -9.63587228 11.86720548 -16.265625 12.12890625 C-25.14516129 11.64112903 -25.14516129 11.64112903 -30 8 C-25.38 8 -20.76 8 -16 8 C-18.97 7.505 -18.97 7.505 -22 7 C-22 6 -22 6 -19.7265625 5.95703125 C-12.05776974 5.59966937 -6.57568395 3.94250077 0 0 Z " fill="#413F3E" transform="translate(364,199)"/>
<path d="M0 0 C0 5.03973428 -3.52008029 7.64007752 -7 11 C-7 10.34 -7 9.68 -7 9 C-7.99 9.33 -8.98 9.66 -10 10 C-18.30683273 10.56171041 -26.28559903 10.43059767 -34 7 C-34 6.67 -34 6.34 -34 6 C-32.1128125 6.2475 -32.1128125 6.2475 -30.1875 6.5 C-18.72311602 7.70394001 -9.378856 7.4560837 0 0 Z " fill="#7D8083" transform="translate(362,204)"/>
<path d="M0 0 C0.77916092 5.02125926 1.13016601 8.97703996 0 14 C-4.875 14.125 -4.875 14.125 -6 13 C-5.90982004 10.80949979 -5.75333792 8.621534 -5.5625 6.4375 C-5.46066406 5.23996094 -5.35882813 4.04242188 -5.25390625 2.80859375 C-5 0 -5 0 0 0 Z " fill="#E3E7E9" transform="translate(173,266)"/>
<path d="M0 0 C1.43630787 2.87261575 0.33844524 3.71227816 -1.1875 6.4375 C-1.82751953 7.61119141 -1.82751953 7.61119141 -2.48046875 8.80859375 C-4.44293295 11.63877991 -6.39535302 14 -10 14 C-10.33 14.99 -10.66 15.98 -11 17 C-12 17 -12 17 -12.4375 13.375 C-12.4626663 6.26552083 -5.64038779 3.07657516 0 0 Z " fill="#93969C" transform="translate(347,230)"/>
<path d="M0 0 C3.84833605 3.28125985 3.48132702 6.72683955 3.4375 11.5 C3.45748047 12.27214844 3.47746094 13.04429687 3.49804688 13.83984375 C3.49220657 20.57955796 2.02160347 22.84891983 -4.75 23.1875 C-5.8225 23.125625 -6.895 23.06375 -8 23 C-7.236875 22.46375 -6.47375 21.9275 -5.6875 21.375 C1.1563629 15.32693512 0.34197809 8.53678642 0 0 Z " fill="#767878" transform="translate(175,154)"/>
<path d="M0 0 C0.99 0.33 1.98 0.66 3 1 C1.71882993 4.27381995 0.34728693 7.47069744 -1.1640625 10.64453125 C-1.56367188 11.48564453 -1.96328125 12.32675781 -2.375 13.19335938 C-2.7875 14.05767578 -3.2 14.92199219 -3.625 15.8125 C-4.04523438 16.69615234 -4.46546875 17.57980469 -4.8984375 18.49023438 C-5.93092761 20.66081018 -6.9648212 22.83070552 -8 25 C-11 23 -11 23 -9.35546875 20 C-4.05951278 10.28040288 -4.05951278 10.28040288 0 0 Z " fill="#717274" transform="translate(336,254)"/>
<path d="M0 0 C2.89759907 1.02268202 5.05563401 2.04311636 7.5 3.9375 C12.25725277 7.29778172 18.39648968 7.90257661 24 9 C15.3507603 13.82181042 4.96417043 7.55417239 0 0 Z " fill="#504F52" transform="translate(289,290)"/>
<path d="M0 0 C2.47567895 1.10030176 4.28628551 2.24108253 6.375 4 C9.1796901 6.13690674 11.67926139 6.91882929 15 8 C15 10 15 10 11.9375 10.3125 C5.68044412 9.81590826 0.1969582 6.89353715 0 0 Z " fill="#444648" transform="translate(302,255)"/>
<path d="M0 0 C0 5.0296894 -2.98593944 6.27865789 -7.4375 7.75 C-8.19933594 8.01296875 -8.96117187 8.2759375 -9.74609375 8.546875 C-12.25327076 9.05091752 -13.59103588 8.77027977 -16 8 C-17.99788438 7.65421232 -19.99759451 7.31856451 -22 7 C-22 6 -22 6 -19.7265625 5.95703125 C-12.05776974 5.59966937 -6.57568395 3.94250077 0 0 Z " fill="#58534E" transform="translate(364,199)"/>
<path d="M0 0 C0.02578125 0.556875 0.0515625 1.11375 0.078125 1.6875 C0.57322225 8.34880849 2.17313651 14.17313651 7 19 C7 19.99 7 20.98 7 22 C2.52628052 22 0.2035081 14.81110899 -1 11 C-1 9.68 -1 8.36 -1 7 C-1.66 7 -2.32 7 -3 7 C-1.125 0 -1.125 0 0 0 Z " fill="#7A7168" transform="translate(313,175)"/>
<path d="M0 0 C0.33 3.3 0.66 6.6 1 10 C0.34 10 -0.32 10 -1 10 C-2.09992607 11.56476725 -2.09992607 11.56476725 -3.0625 13.5 C-4.90277778 17 -4.90277778 17 -6 17 C-5.70779795 13.63967644 -3.93660777 0 0 0 Z " fill="#6B6C6C" transform="translate(310,183)"/>
<path d="M0 0 C1.45949551 4.37848652 -0.80521238 6.91282224 -2.9375 10.6875 C-3.51661133 11.7403418 -3.51661133 11.7403418 -4.10742188 12.81445312 C-5.06261773 14.54795672 -6.03015386 16.27465009 -7 18 C-8.57453155 13.34331178 -6.48772659 10.69450076 -4.0625 6.75 C-3.67642578 6.1003125 -3.29035156 5.450625 -2.89257812 4.78125 C-1.93941582 3.18087871 -0.97114076 1.5895258 0 0 Z " fill="#595B5D" transform="translate(358,210)"/>
<path d="M0 0 C6.435 2.97 6.435 2.97 13 6 C12.01 6.495 12.01 6.495 11 7 C10.67 7.66 10.34 8.32 10 9 C8.70590711 8.38003922 7.41480327 7.75383647 6.125 7.125 C5.40570313 6.77695312 4.68640625 6.42890625 3.9453125 6.0703125 C0.78632767 4.33223651 0 3.70306712 0 0 Z " fill="#83A0B2" transform="translate(266,331)"/>
<path d="M0 0 C-0.49355012 2.92241495 -1.08749252 5.69699424 -1.8125 8.5625 C-2.00392578 9.36880859 -2.19535156 10.17511719 -2.39257812 11.00585938 C-3.85691172 17 -3.85691172 17 -5 17 C-4.88602456 14.56152549 -4.75929026 12.12486826 -4.625 9.6875 C-4.5940625 8.99720703 -4.563125 8.30691406 -4.53125 7.59570312 C-3.97568222 -1.98784111 -3.97568222 -1.98784111 0 0 Z " fill="#B16D7B" transform="translate(161,337)"/>
<path d="M0 0 C-2.24783237 4.35517522 -5.63559572 5.35305499 -10 7 C-8.69510518 3.95524542 -2.84563809 -5.69127618 0 0 Z " fill="#8E9194" transform="translate(348,232)"/>
<path d="M0 0 C-1.3937282 4.43458973 -3.60582235 6.87378374 -7 10 C-4.04545455 0 -4.04545455 0 0 0 Z " fill="#E4D9D9" transform="translate(262,365)"/>
<path d="M0 0 C1.39195915 4.17587745 -0.17676781 6.13474776 -2 10 C-5.12062541 8.4396873 -3.92507373 7.05985926 -3 4 C-1.4375 1.6875 -1.4375 1.6875 0 0 Z " fill="#646668" transform="translate(284,244)"/>
<path d="M0 0 C0.20086443 3.71599191 0.1519437 4.77208445 -2 8 C-5.125 8.1875 -5.125 8.1875 -8 8 C-7.21625 7.4225 -6.4325 6.845 -5.625 6.25 C-4.25404942 5.07489951 -1.37102819 0 0 0 Z " fill="#5E6060" transform="translate(175,169)"/>
<path d="M0 0 C1.34511445 4.03534334 -0.00199971 5.40359947 -2 9 C-2.99 8.34 -3.98 7.68 -5 7 C-3.35 4.69 -1.7 2.38 0 0 Z " fill="#595B5C" transform="translate(330,270)"/>
<path d="M0 0 C-2.60869565 8 -2.60869565 8 -5 8 C-3.7027027 0 -3.7027027 0 0 0 Z " fill="#696969" transform="translate(296,220)"/>
<path d="M0 0 C0.53571429 7.36607143 0.53571429 7.36607143 -4 8 C-3.71972588 6.66422545 -3.42548372 5.33137401 -3.125 4 C-2.96257812 3.2575 -2.80015625 2.515 -2.6328125 1.75 C-2 0 -2 0 0 0 Z " fill="#4C585D" transform="translate(371,181)"/>
<path d="M0 0 C3.02927773 1.51463887 3.07105493 3.88139869 4 7 C-0.05178724 8.35059575 0.47944269 7.55066246 -1 4 C-0.625 1.75 -0.625 1.75 0 0 Z " fill="#4C3A39" transform="translate(152,204)"/>
<path d="M0 0 C1.36608209 4.09824627 0.1404344 4.39792578 -3 7 C-3.66 7 -4.32 7 -5 7 C-4.48172639 3.24251636 -3.13858414 2.02489299 0 0 Z " fill="#EAEBEF" transform="translate(273,347)"/>
<path d="M0 0 C2.34871794 4.69743588 -2.25659387 7.02978625 -6 9 C-4.47291037 5.56404834 -2.40072955 2.88087546 0 0 Z " fill="#B9BABD" transform="translate(344,235)"/>
<path d="M0 0 C0.22081878 1.64420473 0.42634013 3.29047104 0.625 4.9375 C0.74101562 5.85402344 0.85703125 6.77054688 0.9765625 7.71484375 C1 10 1 10 -1 11 C-1 9.68 -1 8.36 -1 7 C-1.66 7 -2.32 7 -3 7 C-1.125 0 -1.125 0 0 0 Z " fill="#666864" transform="translate(313,175)"/>
<path d="M0 0 C2.64 0 5.28 0 8 0 C6.515 1.98 6.515 1.98 5 4 C5 3.34 5 2.68 5 2 C3.35 2 1.7 2 0 2 C0 1.34 0 0.68 0 0 Z " fill="#CEDDE4" transform="translate(280,338)"/>
<path d="M0 0 C-0.51827361 3.75748364 -1.86141586 4.97510701 -5 7 C-3.89473684 0 -3.89473684 0 0 0 Z " fill="#D6D7D8" transform="translate(302,213)"/>
</svg>